<svg width="164" height="26" viewBox="0 0 164 26" fill="none" xmlns="http://www.w3.org/2000/svg">
<path d="M143.745 13.5037L140.938 19.6104H135.115L142.213 4.21289H148.036L145.474 9.77081H153.705L156.273 4.21289H162.096L154.999 19.604H149.176L151.983 13.4974H143.751L143.745 13.5037Z" fill="white"/>
<path d="M123.831 14.8055L126.522 8.99232C126.626 8.75622 126.81 8.63498 127.08 8.63498H138.707L140.754 4.21289H126.7C126.271 4.21289 125.872 4.25756 125.486 4.32137L122.893 9.91119H120.258L117.322 16.2795C117.254 16.4454 117.187 16.6049 117.132 16.7517C117.077 16.8985 117.021 17.0516 116.985 17.2048C116.574 18.8064 117.444 19.604 119.602 19.604H133.656L135.685 15.182H124.058C123.825 15.182 123.733 15.099 123.776 14.9267C123.788 14.8693 123.807 14.831 123.831 14.7991V14.8055Z" fill="white"/>
<path d="M67.1592 5.43806L67.8763 14.0525L76.5677 5.43806C77.3829 4.62128 78.3574 4.21927 79.4914 4.21927H81.9983C83.739 4.21927 84.4255 4.92757 84.0577 6.34417C84.0209 6.49732 83.9658 6.65046 83.9106 6.80999C83.8493 6.96313 83.788 7.12904 83.7145 7.29495L78.0387 19.6168H72.9023L76.6658 11.449L69.5373 18.398C68.6915 19.2148 67.7966 19.6168 66.8588 19.6168H63.8064C63.3345 19.6168 62.9667 19.5147 62.7031 19.3105C62.4396 19.1063 62.2863 18.8 62.2434 18.3916L61.5263 11.4426L57.7629 19.6104H52.6265L58.3084 7.28857C59.2523 5.24024 60.7724 4.21289 62.8625 4.21289H65.3694C66.5033 4.21289 67.104 4.62128 67.1776 5.43168L67.1592 5.43806Z" fill="white"/>
<path d="M41.9845 4.1749C41.629 4.1749 41.2919 4.1749 40.9671 4.1749C41.3532 4.73643 41.6965 5.67445 41.3348 7.08467C41.2306 7.49306 41.0713 7.92697 40.8629 8.36726L39.6677 10.9388C39.0731 12.2214 38.2824 13.236 37.3079 13.9635C36.7562 14.3719 36.131 14.6909 35.4507 14.9206L36.7869 19.6043H51.0376C51.0376 19.6043 51.8834 17.7666 53.0051 15.3226H40.8322L41.5984 13.6189H53.7835C54.3229 12.4512 54.8868 11.2196 55.4384 10.0263H42.8243L43.5904 8.3226H56.223L56.2475 8.26517C56.983 6.6699 58.1292 4.1749 58.1292 4.1749H41.9845Z" fill="#A5D300"/>
<path d="M105.382 4.21289C105.382 4.21289 105.388 4.21927 105.394 4.22565C105.755 4.717 106.117 5.58482 105.774 6.92485C105.719 7.12904 105.657 7.33324 105.578 7.53105C105.516 7.69696 105.443 7.86925 105.369 8.04792L105.1 8.63498H109.795L104.744 19.604H110.567L115.618 8.63498H122.121L124.168 4.21289H105.382Z" fill="white"/>
<path d="M101.986 4.21324H90.4754C89.2066 4.21324 88.1279 4.48763 87.2391 5.04278C86.3504 5.59794 85.6455 6.42748 85.1306 7.53778L79.5775 19.6044H85.4003L87.4291 15.1823H94.8946L92.8658 19.6044H98.6887L104.242 7.53778C104.309 7.37188 104.377 7.20597 104.438 7.05282C104.499 6.89968 104.548 6.74653 104.585 6.587C104.996 4.99812 104.125 4.20686 101.98 4.20686L101.986 4.21324ZM96.568 10.9517H88.7653L89.5805 9.14582H97.4077L96.5741 10.9517H96.568Z" fill="white"/>
<path d="M37.2347 4.1749H24.3509C24.737 4.73643 25.0803 5.67445 24.7186 7.08467C24.6144 7.48029 24.4612 7.89506 24.2651 8.3226H33.1465L32.3619 10.0263H23.4805L22.6469 11.8322C21.6233 14.0656 19.9439 15.463 17.7435 15.9799L16.0334 19.6043H21.5253L23.9218 14.7101H27.7281L29.0459 19.6043H35.2733L33.6123 13.7784C34.734 13.6572 35.684 13.3126 36.4624 12.7383C37.2409 12.164 37.8722 11.3472 38.3625 10.288L39.5577 7.71001C39.7232 7.35267 39.852 7.01447 39.9316 6.69542C40.3729 5.0172 39.4719 4.1749 37.2347 4.1749Z" fill="#A5D300"/>
<path fill-rule="evenodd" clip-rule="evenodd" d="M6.69264 4.17487H20.6124C22.8496 4.17487 23.7506 5.01717 23.3215 6.69539C23.2418 7.01444 23.1192 7.35264 22.9476 7.70998L21.3479 11.1813C20.2691 13.5359 18.3997 14.7164 15.7457 14.7164H9.16276L11.3325 10.0263H15.7334L16.518 8.32256H10.2642L6.68614 16.0885H10.517L0.182922 24.0011L3.75632 16.3246H1.15749L5.02509 7.77399H5.03149L6.69264 4.17487Z" fill="#A5D300"/>
</svg>
